<svg width="26" height="26" viewBox="0 0 26 26" fill="none" xmlns="http://www.w3.org/2000/svg">
<g clip-path="url(#clip0_1101_7603)">
<rect x="0.351562" y="0.865234" width="24.7704" height="24.7704" rx="3.35704" fill="#4169E1"/>
<path d="M-0.55649 30.3787C-2.91459 28.5567 -4.71659 26.5094 -5.96249 24.2368C-7.1478 21.9565 -7.70245 19.6723 -7.62642 17.3842C-7.52398 15.0619 -6.73728 12.9135 -5.2663 10.9391L-0.293786 14.7812C-1.41681 16.5878 -1.82916 18.5342 -1.53083 20.6204C-1.17192 22.6988 0.169496 24.6358 2.49342 26.4314C4.71482 28.1478 6.88026 28.9477 8.98975 28.8312C11.1598 28.7068 12.9182 27.7732 14.2649 26.0302C15.3212 24.6632 15.8034 23.262 15.7117 21.8267C15.62 20.3914 15.1819 19.0159 14.3974 17.7002C13.6129 16.3845 12.4618 14.731 10.9441 12.7396C9.06127 10.3024 7.63985 8.22174 6.6798 6.49753C5.75392 4.79972 5.28007 2.90539 5.25824 0.814543C5.29699 -1.28407 6.17457 -3.44408 7.89097 -5.66548C9.39612 -7.61348 11.2252 -8.95645 13.3781 -9.69438C15.5311 -10.4323 17.813 -10.5248 20.2239 -9.97192C22.6689 -9.3926 25.0534 -8.20514 27.3773 -6.40952C30.7265 -3.82171 32.8136 -0.871924 33.6386 2.43985C34.4977 5.77803 33.9945 8.93685 32.129 11.9163L27.0027 7.95538C27.8881 6.45633 28.0946 4.70567 27.6223 2.70338C27.1764 0.666914 25.9111 -1.15671 23.8264 -2.76748C21.8784 -4.27263 19.8932 -4.98789 17.8707 -4.91325C15.8746 -4.87279 14.1768 -3.94691 12.7773 -2.13561C11.7738 -0.836948 11.3141 0.499753 11.398 1.87449C11.5161 3.27564 11.9333 4.60764 12.6494 5.87051C13.4262 7.12561 14.5773 8.77914 16.1028 10.8311C17.9591 13.3025 19.3542 15.4173 20.2878 17.1757C21.2479 18.8999 21.7256 20.8246 21.721 22.9496C21.7429 25.0404 20.8824 27.2136 19.1396 29.4692C17.7928 31.2122 16.064 32.4961 13.953 33.321C11.842 34.1459 9.51112 34.3371 6.96045 33.8945C4.40978 33.4519 1.90414 32.2799 -0.55649 30.3787Z" fill="white"/>
</g>
<defs>
<clipPath id="clip0_1101_7603">
<rect x="0.351562" y="0.865234" width="24.7704" height="24.7704" rx="3.35704" fill="white"/>
</clipPath>
</defs>
</svg>
