<svg width="44" height="44" viewBox="0 0 44 44" fill="none" xmlns="http://www.w3.org/2000/svg">
<g clip-path="url(#clip0_1101_38716)">
<rect x="0.409393" y="0.454834" width="43.0904" height="43.0904" rx="5.83989" fill="white"/>
<path d="M-2.30356 53.2628C-6.4057 50.0932 -9.54045 46.5317 -11.7078 42.5784C-13.7698 38.6116 -14.7346 34.638 -14.6024 30.6576C-14.4242 26.6177 -13.0556 22.8804 -10.4967 19.4457L-1.84656 26.1294C-3.80017 29.2722 -4.51749 32.6582 -3.99852 36.2873C-3.37416 39.9029 -1.04064 43.2725 3.00205 46.3962C6.86638 49.382 10.6334 50.7735 14.303 50.5707C18.0781 50.3544 21.137 48.7302 23.4797 45.6982C25.3171 43.3201 26.1561 40.8827 25.9966 38.3858C25.837 35.8889 25.0749 33.4961 23.7102 31.2074C22.3455 28.9186 20.343 26.0421 17.7028 22.5779C14.4275 18.3382 11.9548 14.7186 10.2847 11.7192C8.674 8.76571 7.84968 5.47034 7.81171 1.83311C7.87913 -1.81764 9.40576 -5.57518 12.3916 -9.43951C15.01 -12.8282 18.1918 -15.1645 21.937 -16.4482C25.6823 -17.7319 29.6519 -17.8928 33.8459 -16.931C38.0992 -15.9232 42.2473 -13.8575 46.29 -10.7338C52.1162 -6.2321 55.7469 -1.10066 57.182 4.66049C58.6766 10.4676 57.8012 15.9626 54.556 21.1457L45.6383 14.2553C47.1785 11.6475 47.5378 8.60209 46.7162 5.11892C45.9405 1.5763 43.7394 -1.59607 40.1129 -4.39816C36.7241 -7.01652 33.2706 -8.26078 29.7523 -8.13093C26.2799 -8.06054 23.3264 -6.44989 20.8918 -3.29897C19.1462 -1.03982 18.3464 1.2855 18.4924 3.67699C18.6979 6.11442 19.4235 8.43157 20.6694 10.6285C22.0206 12.8118 24.0231 15.6883 26.6768 19.2579C29.9062 23.557 32.3329 27.2361 33.9571 30.295C35.6272 33.2944 36.4583 36.6424 36.4503 40.3391C36.4883 43.9764 34.9914 47.7569 31.9596 51.6807C29.6169 54.7127 26.6093 56.9462 22.937 58.3812C19.2647 59.8163 15.21 60.1488 10.7729 59.3788C6.33574 58.6089 1.97693 56.5702 -2.30356 53.2628Z" fill="#4169E1"/>
</g>
<defs>
<clipPath id="clip0_1101_38716">
<rect x="0.409393" y="0.454834" width="43.0904" height="43.0904" rx="5.83989" fill="white"/>
</clipPath>
</defs>
</svg>
