<svg width="24" height="25" viewBox="0 0 24 25" fill="none" xmlns="http://www.w3.org/2000/svg">
<rect y="0.5" width="24" height="24" rx="12" fill="#F5ECBB"/>
<path d="M10.86 7.07347L5.21335 16.5001C5.09693 16.7018 5.03533 16.9303 5.03467 17.1631C5.03402 17.396 5.09434 17.6249 5.20963 17.8272C5.32492 18.0294 5.49116 18.198 5.69182 18.316C5.89247 18.4341 6.12055 18.4976 6.35335 18.5001H17.6467C17.8795 18.4976 18.1076 18.4341 18.3082 18.316C18.5089 18.198 18.6751 18.0294 18.7904 17.8272C18.9057 17.6249 18.966 17.396 18.9654 17.1631C18.9647 16.9303 18.9031 16.7018 18.7867 16.5001L13.14 7.07347C13.0212 6.87754 12.8538 6.71555 12.6541 6.60313C12.4545 6.4907 12.2292 6.43164 12 6.43164C11.7709 6.43164 11.5456 6.4907 11.3459 6.60313C11.1462 6.71555 10.9789 6.87754 10.86 7.07347V7.07347Z" stroke="#572222" stroke-linecap="round" stroke-linejoin="round"/>
<path d="M12 10.5V13.1667" stroke="#572222" stroke-linecap="round" stroke-linejoin="round"/>
<path d="M12 15.834H12.0067" stroke="black" stroke-width="2" stroke-linecap="round" stroke-linejoin="round"/>
</svg>
